<svg xmlns="http://www.w3.org/2000/svg" viewBox="0 0 1200 630" role="img" aria-label="Nyx local-first security scanner for developers">
  <rect width="1200" height="630" fill="#08090b"/>
  <path d="M0 508H1200" stroke="#2a3038" stroke-width="2"/>
  <path d="M0 122H1200" stroke="#161b22" stroke-width="2"/>
  <g opacity="0.28">
    <path d="M80 0V630M200 0V630M320 0V630M440 0V630M560 0V630M680 0V630M800 0V630M920 0V630M1040 0V630M1160 0V630" stroke="#26313a"/>
    <path d="M0 80H1200M0 200H1200M0 320H1200M0 440H1200M0 560H1200" stroke="#26313a"/>
  </g>
  <rect x="76" y="88" width="1048" height="454" rx="18" fill="#101318" stroke="#2a3038"/>
  <text x="112" y="280" font-family="-apple-system, BlinkMacSystemFont, 'Segoe UI', system-ui, sans-serif" font-size="96" font-weight="800" letter-spacing="0" fill="#f3f6f8">Nyx</text>
  <text x="112" y="350" font-family="-apple-system, BlinkMacSystemFont, 'Segoe UI', system-ui, sans-serif" font-size="34" font-weight="500" letter-spacing="0" fill="#bac3cc">Local-first security scanning for developers.</text>
  <text x="112" y="408" font-family="-apple-system, BlinkMacSystemFont, 'Segoe UI', system-ui, sans-serif" font-size="25" font-weight="500" letter-spacing="0" fill="#87919e">Source-to-sink analysis. Browser triage UI. SARIF for CI.</text>
  <rect x="818" y="212" width="254" height="36" rx="8" fill="#111820" stroke="#2a3038"/>
  <rect x="846" y="268" width="198" height="18" rx="9" fill="#72f3d7"/>
  <rect x="846" y="312" width="156" height="18" rx="9" fill="#e9c46a"/>
  <rect x="846" y="356" width="184" height="18" rx="9" fill="#93e48b"/>
  <rect x="846" y="400" width="126" height="18" rx="9" fill="#f07178"/>
  <path d="M782 277C744 277 744 316 706 316H632" fill="none" stroke="#72f3d7" stroke-width="4" stroke-linecap="round"/>
  <circle cx="782" cy="277" r="9" fill="#72f3d7"/>
  <circle cx="632" cy="316" r="9" fill="#72f3d7"/>
</svg>
